HIERARCHY
ROOT Hips
{
	OFFSET 0.000000 0.000000 0.000000
	CHANNELS 6 Xposition Yposition Zposition Zrotation Yrotation Xrotation 
	JOINT LHipJoint
	{
		OFFSET 0.000000 0.000000 0.000000
		CHANNELS 3 Zrotation Yrotation Xrotation
		JOINT LeftUpLeg
		{
			OFFSET 1.363060 -1.794630 0.839290
			CHANNELS 3 Zrotation Yrotation Xrotation
			JOINT LeftLeg
			{
				OFFSET 2.448110 -6.726130 0.000000
				CHANNELS 3 Zrotation Yrotation Xrotation
				JOINT LeftFoot
				{
					OFFSET 2.562200 -7.039590 0.000000
					CHANNELS 3 Zrotation Yrotation Xrotation
					JOINT LeftToeBase
					{
						OFFSET 0.157640 -0.433110 2.322550
						CHANNELS 3 Zrotation Yrotation Xrotation
						End Site
						{
							OFFSET 0.000000 0.000000 0.000000
						}
					}
				}
			}
		}
	}
	JOINT RHipJoint
	{
		OFFSET 0.000000 0.000000 0.000000
		CHANNELS 3 Zrotation Yrotation Xrotation
		JOINT RightUpLeg
		{
			OFFSET -1.305520 -1.794630 0.839290
			CHANNELS 3 Zrotation Yrotation Xrotation
			JOINT RightLeg
			{
				OFFSET -2.542530 -6.985550 0.000000
				CHANNELS 3 Zrotation Yrotation Xrotation
				JOINT RightFoot
				{
					OFFSET -2.568260 -7.056230 0.000000
					CHANNELS 3 Zrotation Yrotation Xrotation
					JOINT RightToeBase
					{
						OFFSET -0.164730 -0.452590 2.363150
						CHANNELS 3 Zrotation Yrotation Xrotation
						End Site
						{
							OFFSET 0.000000 0.000000 0.000000
						}
					}
				}
			}
		}
	}
	JOINT LowerBack
	{
		OFFSET 0.000000 0.000000 0.000000
		CHANNELS 3 Zrotation Yrotation Xrotation
		JOINT Spine
		{
			OFFSET 0.028270 2.035590 -0.193380
			CHANNELS 3 Zrotation Yrotation Xrotation
			JOINT Spine1
			{
				OFFSET 0.056720 2.048850 -0.042750
				CHANNELS 3 Zrotation Yrotation Xrotation
				JOINT Neck
				{
					OFFSET 0.000000 0.000000 0.000000
					CHANNELS 3 Zrotation Yrotation Xrotation
					JOINT Neck1
					{
						OFFSET -0.054170 1.746240 0.172020
						CHANNELS 3 Zrotation Yrotation Xrotation
						JOINT Head
						{
							OFFSET 0.104070 1.761360 -0.123970
							CHANNELS 3 Zrotation Yrotation Xrotation
							End Site
							{
								OFFSET 0.000000 0.000000 0.000000
							}
						}
					}
				}
				JOINT LeftShoulder
				{
					OFFSET 0.000000 0.000000 0.000000
					CHANNELS 3 Zrotation Yrotation Xrotation
					JOINT LeftArm
					{
						OFFSET 3.362410 1.200890 -0.311210
						CHANNELS 3 Zrotation Yrotation Xrotation
						JOINT LeftForeArm
						{
							OFFSET 4.983000 -0.000000 -0.000000
							CHANNELS 3 Zrotation Yrotation Xrotation
							JOINT LeftHand
							{
								OFFSET 3.483560 -0.000000 -0.000000
								CHANNELS 3 Zrotation Yrotation Xrotation
								JOINT LeftFingerBase
								{
									OFFSET 0.000000 0.000000 0.000000
									CHANNELS 3 Zrotation Yrotation Xrotation
									JOINT LeftHandIndex1
									{
										OFFSET 0.715260 -0.000000 -0.000000
										CHANNELS 3 Zrotation Yrotation Xrotation
										End Site
										{
											OFFSET 0.000000 0.000000 0.000000
										}
									}
								}
								JOINT LThumb
								{
									OFFSET 0.000000 0.000000 0.000000
									CHANNELS 3 Zrotation Yrotation Xrotation
									End Site
									{
										OFFSET 0.000000 0.000000 0.000000
									}
								}
							}
						}
					}
				}
				JOINT RightShoulder
				{
					OFFSET 0.000000 0.000000 0.000000
					CHANNELS 3 Zrotation Yrotation Xrotation
					JOINT RightArm
					{
						OFFSET -3.136600 1.374050 -0.404650
						CHANNELS 3 Zrotation Yrotation Xrotation
						JOINT RightForeArm
						{
							OFFSET -5.241900 -0.000000 -0.000000
							CHANNELS 3 Zrotation Yrotation Xrotation
							JOINT RightHand
							{
								OFFSET -3.444170 -0.000000 -0.000000
								CHANNELS 3 Zrotation Yrotation Xrotation
								JOINT RightFingerBase
								{
									OFFSET 0.000000 0.000000 0.000000
									CHANNELS 3 Zrotation Yrotation Xrotation
									JOINT RightHandIndex1
									{
										OFFSET -0.622530 -0.000000 -0.000000
										CHANNELS 3 Zrotation Yrotation Xrotation
										End Site
										{
											OFFSET 0.000000 0.000000 0.000000
										}
									}
								}
								JOINT RThumb
								{
									OFFSET 0.000000 0.000000 0.000000
									CHANNELS 3 Zrotation Yrotation Xrotation
									End Site
									{
										OFFSET 0.000000 0.000000 0.000000
									}
								}
							}
						}
					}
				}
			}
		}
	}
}
MOTION
Frames: 6
Frame Time: 0.008333
25.616511 17.610349 -1.378489 18.232315 -87.931767 -11.290405 4.968134 2.731739 -0.337510 -24.968004 -9.227090 -8.902378 1.134474 9.746195 28.862808 4.520604 -6.641913 3.172124 0.312800 3.595400 9.941100 -10.568748 -3.244699 -2.490532 29.873798 7.523242 -10.100362 -2.178587 -9.976452 30.399918 -0.080462 -4.164630 -14.274338 -0.368700 3.900400 -10.796500 -3.573323 2.039101 0.149702 0.603892 2.055007 -4.571955 3.510268 1.620837 -7.791896 -12.470562 -5.449165 -9.143616 8.574520 -7.104775 6.910262 5.716000 -3.633100 3.463000 3.633766 -12.353371 2.053322 -102.910672 7.574534 -3.802532 22.242159 -35.046584 -9.172220 2.260677 4.613512 16.077942 38.580415 53.294647 29.870000 -7.125000 0.000000 0.000000 -13.513000 83.981600 -12.036900 -4.685032 11.452326 2.484656 90.214851 -1.908890 -12.433759 -4.881906 19.085412 -4.135135 -1.604741 3.945665 -0.365821 -3.915334 60.807183 -1.778100 7.125000 0.000000 0.000000 18.819400 24.697500 25.955000 
25.610207 17.624506 -1.379816 17.355282 -87.932189 -10.400824 4.955161 2.715496 -0.349389 -25.018391 -8.734805 -9.530784 1.203270 9.912508 29.291063 4.302150 -6.032752 3.052966 0.084500 1.875000 5.160400 -10.592742 -3.263538 -2.514326 29.957252 7.342372 -9.893018 -2.108855 -9.832209 29.988109 -0.034575 -4.273446 -14.060100 -0.400700 4.063900 -11.256400 -3.527772 2.054083 0.058738 0.595495 2.082201 -4.555739 3.450199 1.623266 -7.685946 -12.453489 -5.457584 -9.171688 8.600527 -7.116286 6.889390 5.727800 -3.634900 3.454000 3.624398 -12.342237 2.057741 -102.847907 7.534689 -3.763789 22.282002 -35.075520 -9.191803 2.250653 4.610645 16.121412 38.514203 53.477254 29.895200 -7.125000 0.000000 0.000000 -14.671600 84.114100 -13.108800 -4.689815 11.436821 2.485614 90.271247 -1.873538 -12.471810 -4.973866 19.180850 -4.137927 -1.597568 3.932739 -0.391963 -3.644198 60.689927 -1.557100 7.125000 0.000000 0.000000 18.896400 24.556000 26.049800 
25.604567 17.637335 -1.381917 17.175360 -87.946773 -10.232508 4.956042 2.707579 -0.360787 -25.112064 -8.235801 -10.124569 1.274785 10.076923 29.717531 4.094105 -5.456698 2.867962 0.000300 0.116500 0.320000 -10.599531 -3.270542 -2.538563 30.006531 7.206469 -9.645784 -2.041308 -9.686541 29.577982 -0.010216 -4.327161 -13.932772 -0.410700 4.113700 -11.396600 -3.519143 2.062051 0.010354 0.588738 2.097267 -4.540077 3.426304 1.625773 -7.605097 -12.480807 -5.449908 -9.177353 8.650515 -7.107003 6.862391 5.760000 -3.627400 3.439600 3.619676 -12.334513 2.058422 -102.829062 7.457898 -3.854048 22.290644 -35.068643 -9.196222 2.254382 4.602943 16.244479 38.465206 53.477254 29.857400 -7.125000 0.000000 0.000000 -14.825400 84.098000 -13.242100 -4.696225 11.424222 2.489435 90.318132 -1.856193 -12.471315 -5.038442 19.254987 -4.143385 -1.601930 3.923891 -0.361075 -3.708790 60.584436 -1.604800 7.125000 0.000000 0.000000 18.859000 24.475000 25.982400 
25.601027 17.649058 -1.384903 17.234527 -87.945117 -10.277227 4.963555 2.699731 -0.368670 -25.228606 -7.823337 -10.761182 1.355747 10.261786 30.193701 3.875332 -4.856843 2.619234 0.066200 -1.660400 -4.568100 -10.604423 -3.272185 -2.559980 30.041715 7.113174 -9.374359 -1.957397 -9.509949 29.073610 0.027744 -4.425364 -13.779428 -0.377400 3.945300 -10.923000 -3.504823 2.064045 -0.020321 0.572113 2.104213 -4.537748 3.348366 1.620824 -7.581379 -12.442712 -5.438117 -9.155970 8.683960 -7.096420 6.837628 5.771400 -3.619300 3.420500 3.625380 -12.331305 2.049334 -102.723296 7.417112 -3.890004 22.065821 -34.836960 -9.077229 2.259534 4.572881 16.081956 38.410843 52.036196 29.221200 -7.125000 0.000000 0.000000 -8.601800 82.833000 -7.466200 -4.712733 11.426774 2.493045 90.414457 -1.851741 -12.512856 -5.085059 19.315150 -4.146674 -1.605788 3.920986 -0.280192 -3.830869 60.469333 -1.697500 7.125000 0.000000 0.000000 18.799300 24.389700 25.881200 
25.593286 17.659786 -1.390765 17.550191 -87.994097 -10.686432 4.974289 2.706860 -0.373994 -25.342159 -7.275817 -11.237929 1.425747 10.405814 30.581662 3.665723 -4.295551 2.386116 0.279200 -3.398400 -9.389800 -10.601800 -3.269271 -2.592332 30.101697 7.023133 -8.983160 -1.888968 -9.350517 28.646370 0.059716 -4.506006 -13.641308 -0.352000 3.811700 -10.547400 -3.519245 2.092256 0.021767 0.553468 2.147915 -4.525073 3.280209 1.636109 -7.563881 -12.380968 -5.433112 -9.112660 8.712005 -7.099507 6.817018 5.773000 -3.618500 3.398800 3.624679 -12.330492 2.040308 -102.593721 7.405246 -4.039771 21.643726 -34.469699 -8.949710 2.272912 4.677004 15.569039 39.269076 54.732509 30.998700 -7.125000 0.000000 0.000000 -20.846500 85.411800 -19.153500 -4.724257 11.435686 2.501065 90.559973 -1.901390 -12.565552 -5.202085 19.455104 -4.158164 -1.595154 3.914149 -0.197098 -3.672002 60.382085 -1.568100 7.125000 0.000000 0.000000 18.842300 24.291300 25.931100 
25.577028 17.681353 -1.400055 18.244109 -88.113370 -11.607540 4.988309 2.730732 -0.393673 -25.572256 -5.894035 -12.009940 1.488213 10.539844 30.935153 3.287586 -3.327240 2.233565 1.048200 -6.510600 -18.273500 -10.584225 -3.261073 -2.639301 30.188858 6.899618 -8.424139 -1.833672 -9.199454 28.278399 0.069159 -4.525200 -13.586974 -0.361500 3.862400 -10.689900 -3.580009 2.142929 0.105995 0.538055 2.224458 -4.484633 3.282074 1.671449 -7.468327 -12.384750 -5.437484 -9.111783 8.777447 -7.113920 6.810795 5.803700 -3.622600 3.393000 3.630876 -12.326906 2.047689 -102.583434 7.442228 -3.980969 21.768135 -34.516832 -8.894551 2.271835 4.488273 15.994313 38.119396 48.909486 27.646500 -7.125000 0.000000 0.000000 -1.288300 79.819600 -1.040300 -4.738722 11.431445 2.511205 90.688177 -1.921872 -12.646861 -5.312143 19.584565 -4.171653 -1.566301 3.917108 -0.068670 -3.349010 60.449117 -1.316000 7.125000 0.000000 0.000000 18.964400 24.306400 26.115100 
